<svg xmlns="http://www.w3.org/2000/svg" viewBox="0 0 240 240">
  <rect width="240" height="240" fill="#fffaf0"/>
  <rect x="14" y="14" width="212" height="212" fill="#ffffff" stroke="#d7cbb8" stroke-width="2"/>
  <g fill="#101b17">
    <rect x="28" y="28" width="54" height="54"/>
    <rect x="158" y="28" width="54" height="54"/>
    <rect x="28" y="158" width="54" height="54"/>
    <rect x="40" y="40" width="30" height="30" fill="#ffffff"/>
    <rect x="170" y="40" width="30" height="30" fill="#ffffff"/>
    <rect x="40" y="170" width="30" height="30" fill="#ffffff"/>
    <rect x="49" y="49" width="12" height="12"/>
    <rect x="179" y="49" width="12" height="12"/>
    <rect x="49" y="179" width="12" height="12"/>
    <rect x="96" y="30" width="12" height="12"/>
    <rect x="122" y="30" width="24" height="12"/>
    <rect x="96" y="56" width="38" height="12"/>
    <rect x="110" y="82" width="12" height="24"/>
    <rect x="136" y="82" width="24" height="12"/>
    <rect x="84" y="110" width="24" height="12"/>
    <rect x="122" y="110" width="12" height="12"/>
    <rect x="148" y="108" width="38" height="14"/>
    <rect x="96" y="134" width="12" height="38"/>
    <rect x="122" y="136" width="38" height="12"/>
    <rect x="174" y="136" width="12" height="24"/>
    <rect x="86" y="188" width="24" height="12"/>
    <rect x="122" y="174" width="12" height="38"/>
    <rect x="148" y="174" width="12" height="12"/>
    <rect x="174" y="186" width="38" height="12"/>
    <rect x="200" y="148" width="12" height="12"/>
    <rect x="148" y="200" width="24" height="12"/>
  </g>
  <circle cx="120" cy="120" r="28" fill="#143527"/>
  <path d="M109 120l8 8 16-18" fill="none" stroke="#d8be83" stroke-width="6" stroke-linecap="round" stroke-linejoin="round"/>
</svg>
