<svg xmlns="http://www.w3.org/2000/svg" width="320" height="320" viewBox="0 0 320 320" role="img" aria-label="阳明心学交易体验营助教活码占位图">
  <rect width="320" height="320" fill="#080807"/>
  <rect x="18" y="18" width="284" height="284" rx="18" fill="#11100D" stroke="#D8B76F" stroke-opacity=".34"/>
  <rect x="48" y="48" width="62" height="62" fill="#F4EBDD" fill-opacity=".88"/>
  <rect x="210" y="48" width="62" height="62" fill="#F4EBDD" fill-opacity=".88"/>
  <rect x="48" y="210" width="62" height="62" fill="#F4EBDD" fill-opacity=".88"/>
  <rect x="66" y="66" width="26" height="26" fill="#080807"/>
  <rect x="228" y="66" width="26" height="26" fill="#080807"/>
  <rect x="66" y="228" width="26" height="26" fill="#080807"/>
  <path d="M136 54h18v18h-18zM172 54h18v36h-18zM136 90h54v18h-54zM126 126h18v54h-18zM162 126h72v18h-72zM252 126h18v54h-18zM162 162h18v18h-18zM198 162h36v18h-36zM126 198h72v18h-72zM216 198h18v18h-18zM252 216h18v54h-18zM126 234h18v36h-18zM162 234h54v18h-54z" fill="#D8B76F" fill-opacity=".72"/>
  <text x="160" y="153" fill="#F4EBDD" fill-opacity=".82" font-family="serif" font-size="18" text-anchor="middle">支付后显示</text>
  <text x="160" y="181" fill="#D8B76F" fill-opacity=".86" font-family="serif" font-size="20" text-anchor="middle">课程助教入口</text>
</svg>
