<svg xmlns="http://www.w3.org/2000/svg" viewBox="0 0 720 180" role="img" aria-labelledby="title">
  <title id="title">阳明照见 UI Glyph 系统</title>
  <g fill="none" stroke="currentColor" stroke-linecap="round" stroke-linejoin="round" stroke-width="8">
    <g transform="translate(0 0)">
      <path d="M30 88H150M90 42V134"/>
      <circle cx="90" cy="88" r="18"/>
    </g>
    <g transform="translate(180 0)">
      <path d="M54 54H132V132H54Z"/>
      <path d="M50 150C86 134 112 152 148 132"/>
    </g>
    <g transform="translate(360 0)">
      <path d="M50 64H132M58 92H140M66 120H148"/>
      <path d="M144 120L154 110"/>
    </g>
    <g transform="translate(540 0)">
      <path d="M42 92C66 66 116 66 140 92C116 116 66 116 42 92Z"/>
      <path d="M90 136V74M90 96C72 88 68 74 70 58M90 96C112 86 118 72 116 54"/>
    </g>
  </g>
</svg>
